<svg width="22" height="22" viewBox="0 0 22 22" fill="none" xmlns="http://www.w3.org/2000/svg">
<rect width="21.9999" height="21.9999" rx="11" fill="url(#paint0_radial_182_757)"/>
<path d="M11 6.49397C12.4578 6.49397 12.6566 6.49397 13.253 6.49397C13.7831 6.49397 14.0482 6.6265 14.247 6.69277C14.512 6.8253 14.7108 6.89156 14.9096 7.09036C15.1084 7.28915 15.2409 7.48795 15.3072 7.753C15.3735 7.9518 15.4397 8.21686 15.506 8.74698C15.506 9.34336 15.506 9.47589 15.506 11C15.506 12.5241 15.506 12.6566 15.506 13.253C15.506 13.7831 15.3735 14.0482 15.3072 14.247C15.1747 14.512 15.1084 14.7108 14.9096 14.9096C14.7108 15.1084 14.512 15.2409 14.247 15.3072C14.0482 15.3735 13.7831 15.4397 13.253 15.506C12.6566 15.506 12.5241 15.506 11 15.506C9.47589 15.506 9.34336 15.506 8.74698 15.506C8.21686 15.506 7.9518 15.3735 7.753 15.3072C7.48795 15.1747 7.28915 15.1084 7.09036 14.9096C6.89156 14.7108 6.75903 14.512 6.69277 14.247C6.6265 14.0482 6.56024 13.7831 6.49397 13.253C6.49397 12.6566 6.49397 12.5241 6.49397 11C6.49397 9.47589 6.49397 9.34336 6.49397 8.74698C6.49397 8.21686 6.6265 7.9518 6.69277 7.753C6.8253 7.48795 6.89156 7.28915 7.09036 7.09036C7.28915 6.89156 7.48795 6.75903 7.753 6.69277C7.9518 6.6265 8.21686 6.56024 8.74698 6.49397C9.34336 6.49397 9.54216 6.49397 11 6.49397ZM11 5.5C9.47589 5.5 9.34336 5.5 8.74698 5.5C8.15059 5.5 7.753 5.63253 7.42168 5.76506C7.09036 5.89759 6.75903 6.09638 6.42771 6.42771C6.09638 6.75903 5.96385 7.02409 5.76506 7.42168C5.63253 7.753 5.56626 8.15059 5.5 8.74698C5.5 9.34336 5.5 9.54216 5.5 11C5.5 12.5241 5.5 12.6566 5.5 13.253C5.5 13.8494 5.63253 14.247 5.76506 14.5783C5.89759 14.9096 6.09638 15.2409 6.42771 15.5723C6.75903 15.9036 7.02409 16.0361 7.42168 16.2349C7.753 16.3674 8.15059 16.4337 8.74698 16.5C9.34336 16.5 9.54216 16.5 11 16.5C12.4578 16.5 12.6566 16.5 13.253 16.5C13.8494 16.5 14.247 16.3674 14.5783 16.2349C14.9096 16.1024 15.2409 15.9036 15.5723 15.5723C15.9036 15.2409 16.0361 14.9759 16.2349 14.5783C16.3674 14.247 16.4337 13.8494 16.5 13.253C16.5 12.6566 16.5 12.4578 16.5 11C16.5 9.54216 16.5 9.34336 16.5 8.74698C16.5 8.15059 16.3674 7.753 16.2349 7.42168C16.1024 7.09036 15.9036 6.75903 15.5723 6.42771C15.2409 6.09638 14.9759 5.96385 14.5783 5.76506C14.247 5.63253 13.8494 5.56626 13.253 5.5C12.6566 5.5 12.5241 5.5 11 5.5Z" fill="white"/>
<path d="M11 8.15059C9.40963 8.15059 8.15059 9.40963 8.15059 11C8.15059 12.5903 9.40963 13.8494 11 13.8494C12.5903 13.8494 13.8494 12.5903 13.8494 11C13.8494 9.40963 12.5903 8.15059 11 8.15059ZM11 12.8554C10.006 12.8554 9.14457 12.0602 9.14457 11C9.14457 10.006 9.93974 9.14457 11 9.14457C11.994 9.14457 12.8554 9.93974 12.8554 11C12.8554 11.994 11.994 12.8554 11 12.8554Z" fill="white"/>
<path d="M13.9156 8.74698C14.2816 8.74698 14.5783 8.4503 14.5783 8.08433C14.5783 7.71836 14.2816 7.42168 13.9156 7.42168C13.5497 7.42168 13.253 7.71836 13.253 8.08433C13.253 8.4503 13.5497 8.74698 13.9156 8.74698Z" fill="white"/>
<defs>
<radialGradient id="paint0_radial_182_757" cx="0" cy="0" r="1" gradientUnits="userSpaceOnUse" gradientTransform="translate(22.4425 0.446874) scale(50.8044)">
<stop stop-color="#F9ED32"/>
<stop offset="0.36" stop-color="#EE2A7B"/>
<stop offset="0.44" stop-color="#D22A8A"/>
<stop offset="0.6" stop-color="#8B2AB2"/>
<stop offset="0.83" stop-color="#1B2AF0"/>
<stop offset="0.88" stop-color="#002AFF"/>
</radialGradient>
</defs>
</svg>
