<svg width="22" height="22" viewBox="0 0 22 22" fill="none" xmlns="http://www.w3.org/2000/svg">
<rect width="22" height="22" rx="11" fill="#0B84EE"/>
<path d="M11.3 16.6625C10.4417 16.6625 9.65833 16.5333 8.95 16.275C8.25 16.025 7.64583 15.65 7.1375 15.15C6.6375 14.65 6.25 14.0375 5.975 13.3125C5.7 12.5791 5.5625 11.7375 5.5625 10.7875C5.5625 9.88745 5.70417 9.08329 5.9875 8.37495C6.27083 7.66662 6.6625 7.07078 7.1625 6.58745C7.6625 6.09578 8.24583 5.72078 8.9125 5.46245C9.57917 5.20412 10.2958 5.07495 11.0625 5.07495C11.9125 5.07495 12.6792 5.19162 13.3625 5.42495C14.0458 5.64995 14.625 5.98745 15.1 6.43745C15.575 6.88745 15.9375 7.44162 16.1875 8.09995C16.4375 8.75828 16.5625 9.51662 16.5625 10.375C16.5625 11.1916 16.4417 11.8625 16.2 12.3875C15.9667 12.9125 15.6458 13.3 15.2375 13.55C14.8292 13.8 14.3667 13.925 13.85 13.925C13.4833 13.925 13.1542 13.8541 12.8625 13.7125C12.5792 13.5708 12.3792 13.2875 12.2625 12.8625C12.0958 13.2125 11.875 13.4791 11.6 13.6625C11.325 13.8458 10.9708 13.9375 10.5375 13.9375C9.82917 13.9375 9.26667 13.7 8.85 13.225C8.43333 12.7416 8.225 12.0208 8.225 11.0625V10.575C8.225 9.60828 8.42083 8.89995 8.8125 8.44995C9.2125 7.99995 9.75 7.77495 10.425 7.77495C10.725 7.77495 10.975 7.81245 11.175 7.88745C11.375 7.96245 11.5375 8.06245 11.6625 8.18745C11.7875 8.30412 11.8833 8.43328 11.95 8.57495V7.86245H13.4875V11.3625C13.4875 11.7625 13.5292 12.0375 13.6125 12.1875C13.6958 12.3291 13.8583 12.4 14.1 12.4C14.3167 12.4 14.5 12.3416 14.65 12.225C14.8083 12.1 14.925 11.8916 15 11.6C15.0833 11.3083 15.125 10.9 15.125 10.375C15.125 9.65829 15.025 9.04995 14.825 8.54995C14.625 8.04162 14.3417 7.62912 13.975 7.31245C13.6167 6.98745 13.1875 6.74995 12.6875 6.59995C12.1958 6.44995 11.6542 6.37495 11.0625 6.37495C10.4875 6.37495 9.95417 6.46662 9.4625 6.64995C8.97083 6.83328 8.54167 7.10828 8.175 7.47495C7.80833 7.84162 7.52083 8.29995 7.3125 8.84995C7.1125 9.39995 7.0125 10.0458 7.0125 10.7875C7.0125 11.8041 7.19167 12.6541 7.55 13.3375C7.90833 14.0125 8.40833 14.5166 9.05 14.85C9.69167 15.1916 10.4417 15.3625 11.3 15.3625C11.9167 15.3625 12.45 15.2916 12.9 15.15C13.3583 15.0083 13.7458 14.8458 14.0625 14.6625V16.0625C13.7292 16.2375 13.3417 16.3791 12.9 16.4875C12.4667 16.6041 11.9333 16.6625 11.3 16.6625ZM10.8875 12.4125C11.1958 12.4125 11.4375 12.3125 11.6125 12.1125C11.7875 11.9041 11.875 11.6041 11.875 11.2125V10.4875C11.875 10.0708 11.7875 9.76662 11.6125 9.57495C11.4375 9.38329 11.1917 9.28745 10.875 9.28745C10.575 9.28745 10.3458 9.39162 10.1875 9.59995C10.0292 9.80828 9.95 10.1625 9.95 10.6625V11.05C9.95 11.5333 10.0292 11.8833 10.1875 12.1C10.3542 12.3083 10.5875 12.4125 10.8875 12.4125Z" fill="white"/>
</svg>
