<svg width="22" height="22" viewBox="0 0 22 22" fill="none" xmlns="http://www.w3.org/2000/svg">
<rect width="21.9999" height="21.9999" rx="11" fill="#55ACE3"/>
<path d="M16.8299 8.19502C16.4449 8.36002 16.0049 8.47002 15.5649 8.52502C16.0049 8.25002 16.3899 7.81002 16.5549 7.31503C16.1149 7.59002 15.6749 7.75502 15.1249 7.86502C14.7399 7.42503 14.1349 7.15002 13.5299 7.15002C12.3199 7.15002 11.3299 8.14002 11.3299 9.35002C11.3299 9.51502 11.3299 9.68001 11.3849 9.84501C9.56991 9.73501 7.91992 8.85502 6.81992 7.53502C6.65492 7.86502 6.54492 8.25002 6.54492 8.63502C6.54492 9.40501 6.92992 10.065 7.53492 10.45C7.14992 10.45 6.81992 10.34 6.54492 10.175C6.54492 11.22 7.31492 12.155 8.30491 12.32C8.13991 12.375 7.91992 12.375 7.69992 12.375C7.53492 12.375 7.42492 12.375 7.25992 12.32C7.53492 13.2 8.35992 13.86 9.34992 13.86C8.57992 14.465 7.64492 14.795 6.59992 14.795C6.43493 14.795 6.26993 14.795 6.04993 14.74C7.03992 15.345 8.19492 15.73 9.45991 15.73C13.5299 15.73 15.7299 12.375 15.7299 9.46001V9.18502C16.1699 9.02002 16.5549 8.63502 16.8299 8.19502Z" fill="white"/>
</svg>
