<svg width="22" height="22" viewBox="0 0 22 22" fill="none" xmlns="http://www.w3.org/2000/svg">
<rect width="21.9999" height="21.9999" rx="11" fill="#48C95F"/>
<path d="M15.3597 6.63432C14.2731 5.55151 12.8244 4.94995 11.2951 4.94995C8.11584 4.94995 5.54024 7.51661 5.54024 10.6848C5.54024 11.6874 5.82195 12.69 6.30488 13.5322L5.5 16.4999L8.55853 15.6978C9.40365 16.139 10.3293 16.3796 11.2951 16.3796C14.4744 16.3796 17.05 13.8129 17.05 10.6447C17.0097 9.16087 16.4463 7.71713 15.3597 6.63432ZM14.0719 12.7301C13.9512 13.051 13.3878 13.3718 13.1061 13.4119C12.8646 13.452 12.5427 13.452 12.2207 13.3718C12.0195 13.2916 11.7378 13.2114 11.4158 13.051C9.96706 12.4494 9.04145 11.0057 8.96096 10.8853C8.88048 10.8051 8.35731 10.1234 8.35731 9.4015C8.35731 8.67963 8.7195 8.35879 8.84023 8.19838C8.96096 8.03796 9.12194 8.03796 9.24267 8.03796C9.32316 8.03796 9.44389 8.03796 9.52437 8.03796C9.60486 8.03796 9.72559 7.99786 9.84633 8.27859C9.96706 8.55931 10.2488 9.28119 10.289 9.32129C10.3293 9.4015 10.3293 9.48171 10.289 9.56191C10.2488 9.64212 10.2085 9.72233 10.128 9.80254C10.0475 9.88275 9.96706 10.0031 9.92681 10.0432C9.84632 10.1234 9.76584 10.2036 9.84633 10.3239C9.92681 10.4843 10.2085 10.9255 10.6512 11.3265C11.2146 11.8077 11.6573 11.9682 11.8183 12.0484C11.9792 12.1286 12.0597 12.0885 12.1402 12.0083C12.2207 11.9281 12.5024 11.6072 12.5829 11.4468C12.6634 11.2864 12.7841 11.3265 12.9049 11.3666C13.0256 11.4067 13.75 11.7676 13.8707 11.8478C14.0317 11.9281 14.1122 11.9682 14.1524 12.0083C14.1927 12.1286 14.1927 12.4093 14.0719 12.7301Z" fill="white"/>
</svg>
